<svg width="88" height="109" viewBox="0 0 88 109" fill="none" xmlns="http://www.w3.org/2000/svg">
<path d="M33.1834 0.999984C39.1282 1.10419 44.343 3.70928 48.8277 8.81527C50.2879 10.4825 51.2787 11.8372 51.8002 12.8792C52.6345 14.4423 52.4259 15.4843 51.1744 16.0053C50.1314 16.4222 49.4014 15.9532 48.9842 14.5986C48.2541 12.3061 47.4719 10.743 46.6375 9.90941C42.4657 5.63706 37.9288 3.39667 33.0269 3.18826C30.3152 3.08406 27.6557 4.074 25.0483 6.15807C22.4409 8.24215 20.6157 10.9862 19.5728 14.3554C18.5298 17.7421 18.9992 21.5802 20.9808 25.8526C21.5023 26.8946 22.1802 27.8846 23.0145 28.8224C23.8489 29.7603 24.8919 30.646 26.1434 31.4796C27.395 32.3132 28.3858 32.9732 29.1158 33.4421C29.8459 33.911 31.0453 34.571 32.714 35.4046C34.3828 36.2383 35.3736 36.7072 35.6865 36.8114C37.1466 37.5408 37.8767 38.5134 37.8767 39.7117C37.8767 40.9101 36.9902 41.6221 35.2171 41.8132C32.2969 42.3342 28.6987 43.7757 24.4225 46.1029C20.1464 48.4475 16.6525 51.1915 13.9408 54.3176C10.0819 58.7984 7.42234 64.1128 5.9622 70.2608C4.50206 76.4088 4.72803 82.5048 6.67489 88.5486C8.60436 94.5924 12.3242 99.1253 17.8519 102.147C25.0483 106.211 32.7662 106.159 41.0056 101.991C46.3246 99.2816 50.4443 95.0266 53.3646 89.2607C56.2849 83.4773 57.6407 77.4509 57.4321 71.1986C57.3278 67.8641 56.4587 64.5817 54.8421 61.3514C53.2255 58.1211 51.4177 55.7244 49.4361 54.1613C44.0127 56.3496 39.3194 58.7463 35.3562 61.3514C31.8102 63.5397 29.4287 66.8221 28.2467 71.1986C27.0473 75.5752 27.7948 78.5971 30.5065 80.2644C32.1752 81.2022 34.0351 81.1328 36.0689 80.0386C38.1027 78.9445 39.7366 77.2598 41.0056 74.9674C42.6743 72.1539 42.57 69.653 40.6927 67.4647C39.9626 66.6311 40.1712 65.9537 41.3184 65.4327C42.2571 64.9117 43.0393 65.1722 43.6651 66.2142C44.0823 66.9437 44.2909 68.1767 44.2909 69.8961C44.2909 71.6155 43.978 73.248 43.3522 74.8284C41.7878 77.7461 39.7192 79.9691 37.1814 81.4801C34.6261 82.9911 32.2969 83.3384 30.2283 82.4874C27.8295 81.5496 26.3694 79.6565 25.8479 76.7736C25.3264 73.908 25.8479 70.8339 27.4123 67.5515C28.9768 64.2691 31.3234 61.6466 34.4523 59.6668C35.8082 58.7289 37.2335 57.8432 38.7458 57.0096C40.2581 56.1759 41.4575 55.516 42.344 55.0471C43.2305 54.5781 44.6907 53.9529 46.7244 53.1714C48.7582 52.3899 49.975 51.9209 50.3922 51.7646C50.8094 51.6083 52.3564 51.0526 55.0159 50.1147C57.6755 49.1769 59.0487 48.708 59.153 48.708C62.3862 47.5617 64.7502 46.7107 66.2799 46.1203C67.7922 45.5471 69.7912 44.6093 72.2943 43.3068C74.7974 42.0042 77.0397 40.5627 79.0213 38.9997C80.6901 37.645 82.1502 35.8041 83.4018 33.4421C84.6533 31.0975 85.2095 28.6487 85.0531 26.0957C84.8967 23.5428 83.6625 21.6323 81.368 20.3819C79.4907 19.4441 77.4048 19.6004 75.1103 20.8508C72.8157 22.1013 71.2513 23.8206 70.4169 26.0089C69.7912 27.7804 70.4691 29.656 72.4507 31.6359C73.2851 32.4695 73.1286 33.199 71.9814 33.8242C70.9384 34.4494 69.9998 34.1889 69.1654 33.0427C68.0181 31.2712 67.7053 29.135 68.2267 26.6341C68.8525 23.4038 70.3822 21.094 72.8331 19.6872C75.2841 18.2805 77.8567 17.8984 80.5858 18.5236C85.0705 19.5656 87.2085 22.6223 87 27.6762C86.7914 32.7301 84.6012 36.9329 80.4293 40.2501C78.552 41.8132 76.3792 43.2547 73.9282 44.5572C71.4773 45.8597 69.3392 46.8844 67.514 47.5965C65.6889 48.3259 63.0467 49.2637 59.6223 50.41C56.2849 51.6604 53.7818 52.5462 52.113 53.0672C54.199 54.8386 56.0763 57.4264 57.745 60.7956C59.4137 64.1823 60.2481 67.4473 60.2481 70.5734C60.2481 78.0761 58.6141 84.9883 55.3288 91.2926C52.0435 97.597 47.8369 102.06 42.7264 104.648C38.6589 106.836 34.1742 107.965 29.2723 108.017C24.3704 108.069 19.8335 107.149 15.6617 105.273C10.6555 103.085 6.81395 99.681 4.15441 95.0266C1.49487 90.3895 0.104259 85.5267 0.0173461 80.4207C-0.0869496 75.3147 0.64312 70.2435 2.20756 65.1722C3.77199 60.1183 5.9622 55.8286 8.77819 52.2857C11.5942 48.7427 14.9316 45.825 18.7906 43.5325C22.6495 41.24 25.7784 39.7812 28.1772 39.156L31.7754 38.3744C31.4625 38.166 30.9932 37.9576 30.3674 37.7492C29.7416 37.5408 28.5944 37.0024 26.9256 36.0993C25.2569 35.2136 23.7272 34.2931 22.3192 33.3553C20.9113 32.4174 19.5206 31.167 18.1648 29.6039C16.809 28.0409 15.9224 26.4257 15.5053 24.7585C13.7322 18.5062 14.723 12.9487 18.4777 8.10321C22.2323 3.2751 27.1342 0.89578 33.1834 0.999984Z" fill="#42505D"/>
</svg>
