<svg width="435" height="210" viewBox="0 0 435 210" fill="none" xmlns="http://www.w3.org/2000/svg">
<path d="M10.6335 166.896C9.22964 156.387 9.0602 146.219 10.101 136.951C-11.175 108.928 7.31746 61.9807 39.5583 70.7378C44.6171 64.4376 49.8453 58.4779 54.7105 53.3939C51.3944 41.8394 47.5701 24.836 51.7575 13.6221C52.9677 10.8247 54.2022 8.53811 55.9449 6.61642C63.279 -1.94607 80.7065 -3.16234 85.5716 8.73272C91.8407 22.9143 73.3724 38.3366 64.1262 47.2639C65.6995 52.5182 67.4422 58.3076 69.6933 64.7781C75.2604 80.5409 78.7459 98.42 75.454 115.058C73.3724 125.737 68.483 134.689 61.8509 140.624C47.207 154.806 26.1246 154.465 12.3521 139.408C11.4807 147.995 11.6501 156.922 13.054 166.725C13.2476 168.136 10.9724 168.477 10.6335 166.896ZM38.0092 73.0244C8.18883 66.0187 -6.26145 108.223 10.6335 133.278C14.4579 109.464 25.6163 89.3223 38.0092 73.0244ZM42.003 71.6135C53.5002 76.3326 58.7285 88.9574 58.8979 101.217C58.8979 102.799 56.4532 102.799 56.4532 101.217C56.4532 89.6629 51.7575 77.9138 40.4296 73.5352C27.7221 90.3683 16.0312 111.215 12.7151 136.075C27.1896 153.76 49.8453 151.498 60.3018 130.481C70.2258 110.874 65.3606 84.2383 58.3896 64.4376C57.6877 62.3456 56.6469 59.3536 55.6061 56.021C51.2492 60.7645 46.7229 65.8484 42.003 71.6135ZM83.3206 9.60843C79.1331 0.316175 67.4664 1.72704 62.9401 10.3139C57.373 20.1169 60.4954 34.1283 63.4726 44.6368C71.2908 36.5851 88.7183 22.0386 83.3206 9.60843Z" fill="#42505D"/>
<path d="M94.4548 125.737C94.1159 129.07 93.7529 132.208 93.9223 134.665C94.0917 140.089 96.8753 141.841 102.636 133.619C108.203 125.202 113.625 113.477 117.619 103.674C118.151 102.628 120.572 103.139 119.894 104.72C115.537 114.694 110.14 126.783 104.209 135.2C95.8345 147.289 89.0571 145.368 86.443 136.951C85.5716 133.448 85.2328 128.9 85.4022 123.28C86.443 109.099 91.3324 85.26 92.2038 85.26C92.5426 84.5546 103.532 81.5869 100.046 97.1794C97.9403 106.301 95.6892 116.98 94.4548 125.737ZM104.572 72.1487C104.234 75.1164 101.426 77.2327 98.3034 76.8678C94.9873 76.5272 92.7363 73.9001 93.2446 71.0784C93.5834 68.1107 96.3912 65.9944 99.5136 66.3593C102.66 66.5296 104.911 69.3513 104.572 72.1487Z" fill="#42505D"/>
<path d="M163.293 94.5766C163.293 101.071 160.849 108.953 158.065 114.888C166.246 113.842 172.878 112.091 179.317 103.845C180.358 102.628 182.27 104.185 181.229 105.426C173.556 114.888 166.246 116.469 156.661 117.345C152.474 125.397 146.035 133.448 136.45 133.984C127.398 134.689 122.678 127.318 129.479 121.188C132.093 118.902 136.789 116.81 144.631 116.104C145.164 116.104 145.672 115.934 146.035 115.934C149.86 109.099 153.878 98.0795 152.474 90.3684C150.9 82.8275 145.164 86.3304 141.485 89.4927C134.175 95.7929 130.326 103.674 125.8 112.091C118.297 142.911 110.987 183.194 94.7695 201.243C90.7515 205.792 86.2252 208.419 81.8683 209.465C70.2016 212.262 60.084 203.675 57.6393 192.826C57.3004 191.245 59.7209 190.734 60.084 192.291C61.9961 200.878 70.2016 209.805 79.4236 204.381C81.3358 203.165 83.248 201.413 85.1843 199.297C95.8103 187.207 101.91 167.066 106.969 145.879C112.197 123.816 116.723 105.766 122.823 83.8735C122.823 83.533 134.151 82.6573 131.004 93.1658C129.963 96.3281 128.922 100.001 127.857 103.504C131.343 97.374 134.828 92.2901 140.057 87.3764C149.521 78.8139 163.293 79.6652 163.293 94.5766ZM144.656 118.561C137.685 119.267 133.497 121.018 131.246 122.94C126.55 126.978 130.375 131.527 135.264 129.24C138.556 127.659 141.872 123.11 144.656 118.561Z" fill="#42505D"/>
<path d="M176.703 122.064C178.446 92.4603 188.031 47.0937 206.329 24.155C210.347 19.071 214.704 15.5682 219.4 13.1113C230.195 7.51651 245.202 9.07333 248.688 22.4036C250.6 29.5795 248.857 38.5069 244.864 45.3423C236.489 59.1834 222.208 69.8622 208.096 77.0381C203.207 79.495 198.342 81.4167 193.985 82.9978C190.161 99.9768 188.757 108.758 187.716 125.397C189.628 121.553 196.769 108.588 202.699 98.42C215.939 76.8678 230.752 84.5789 227.46 104.209C225.185 117.175 215.6 133.448 212.647 145.197C208.823 160.79 217.875 155.171 224.677 145.027C233.221 132.767 241.402 119.291 250.987 103.699C251.859 102.288 254.134 103.163 253.069 104.745C244.016 119.972 235.811 132.938 226.226 146.779C215.237 163.247 202.529 162.371 203.74 144.322C204.78 131.356 215.237 113.307 217.149 101.047C219.594 86.6709 211.751 87.9115 204.95 99.466C198.511 109.975 190.645 125.397 187.861 131.356C187.522 131.697 186.82 132.232 186.457 132.573C175.831 134.494 176.364 129.07 176.703 122.064ZM206.862 74.9461C220.804 67.7702 234.576 57.6022 242.951 43.9314C246.267 38.142 248.18 30.2606 246.437 23.6198C243.484 10.6545 229.179 10.3139 220.126 19.071C217.851 21.3576 215.939 23.9847 214.365 26.7821C205.821 39.9178 197.277 66.3593 194.493 80.0301C194.493 80.7356 205.652 75.4813 206.862 74.9461Z" fill="#42505D"/>
<path d="M285.818 117.686C291.748 114.888 296.444 109.269 299.76 103.674C300.631 102.263 302.713 103.504 301.842 104.891C298.356 111.02 293.297 116.81 286.689 119.778C284.414 120.994 281.994 121.699 279.38 121.87C277.298 127.829 274.151 132.719 270.327 135.54C264.058 139.578 255.853 140.259 250.285 132.378C245.59 125.908 245.929 116.08 248.543 107.688C250.116 103.48 251.859 100.147 254.11 97.7146C254.11 93.336 255.683 88.7872 258.806 85.6249C260.379 83.8735 262.63 82.4626 265.075 81.9518C273.086 80.2004 278.678 84.7492 281.122 91.5846C284.438 99.8065 282.865 111.215 280.251 119.267C282.139 119.096 283.882 118.561 285.818 117.686ZM256.53 129.605C259.314 136.611 264.712 136.27 268.899 133.278C272.046 131.186 274.66 126.808 276.402 121.894C267.689 121.724 261.759 116.81 257.934 109.464C255.659 115.229 254.255 123.816 256.53 129.605ZM260.355 87.2061C258.442 89.4926 257.039 92.29 256.53 95.0874C258.806 93.5063 261.057 92.29 263.671 91.5846C267.689 90.5386 269.238 95.2577 266.624 97.1794C263.84 99.1011 261.057 103.139 258.951 106.812C262.969 114.158 268.705 119.413 277.25 119.607C279.694 112.066 281.776 101.047 278.992 93.336C276.911 87.3763 272.191 82.8275 265.583 84.4087C263.671 84.7492 261.759 85.8195 260.355 87.2061Z" fill="#42505D"/>
<path d="M295.742 122.405C296.081 114.353 301.672 95.9631 302.713 85.4546C302.882 85.4546 313.508 80.5409 312.468 92.8008C311.766 99.6362 306.707 120.118 305.666 123.986C310.555 112.066 316.824 97.7145 322.392 85.7951C332.316 66.6998 346.088 73.3649 345.386 91.7548C344.345 108.564 332.146 131.332 330.234 148.676C329.024 159.89 334.76 158.479 339.988 151.303C347.298 141.135 358.82 121.188 368.042 103.674C368.574 102.969 370.656 102.969 370.317 104.55C360.901 121.724 349.065 143.446 341.392 153.59C334.252 162.882 323.965 163.563 323.094 148.335C322.053 130.286 330.403 112.602 334.591 91.244C337.205 77.9381 331.638 72.3189 324.473 86.5249C317.841 99.4902 310.701 118.05 304.77 131.721C297.146 135.905 295.573 128.559 295.742 122.405Z" fill="#42505D"/>
<path d="M343.498 197.375C340.013 190.029 341.053 179.861 345.071 172.515C350.13 163.052 357.61 155 365.984 148.53C368.066 146.949 370.341 145.368 372.423 144.151C378.353 140.113 387.067 135.224 393.699 132.062C395.611 119.267 397.354 107.372 399.46 94.4062C394.062 104.744 387.793 119.291 379.757 128.389C372.786 136.44 361.119 133.302 362.668 119.461C364.072 106.155 374.529 88.6411 385.324 85.4789C390.213 84.2626 397.184 84.6032 399.968 90.5628C400.307 89.152 400.67 87.06 401.009 86.5248C411.126 82.4869 411.804 89.152 410.594 95.4522C409.723 101.923 408.319 112.966 406.068 126.272C415.483 120.142 425.77 112.796 431.701 103.844C432.741 102.263 434.654 103.674 433.782 104.89C428.021 113.648 414.079 124.326 405.535 129.41C400.839 155.511 392.634 187.207 378.353 200.002C366.856 210.17 349.767 211.751 343.498 197.375ZM372.955 146.584C371.043 147.8 369.131 149.211 367.195 150.792C358.82 156.922 351.849 164.633 347.153 173.561C343.668 180.226 342.264 190.029 345.749 196.499C352.188 208.93 364.048 205.086 372.06 196.329C382.855 184.775 391.23 150.427 393.142 134.859C387.769 137.657 376.247 144.322 372.955 146.584ZM388.64 90.3682C382.879 94.7468 375.231 110.169 372.786 120.142C370.511 129.605 375.061 130.821 378.716 126.272C386.026 117.686 392.997 102.093 398.419 92.2899C396.483 87.206 392.465 87.7411 388.64 90.3682Z" fill="#42505D"/>
</svg>
